<!--?xml version="1.0" encoding="utf-8"?-->
<!-- Generator: Adobe Illustrator 18.0.0, SVG Export Plug-In . SVG Version: 6.00 Build 0)  -->

<svg version="1.1" id="_x31_0" xmlns="http://www.w3.org/2000/svg" xmlns:xlink="http://www.w3.org/1999/xlink" x="0px" y="0px" viewBox="0 0 512 512" style="width: 32px; height: 32px; opacity: 1;" xml:space="preserve">
<style type="text/css">
	.st0{fill:#374149;}
</style>
<g>
	<path class="st0" d="M511.51,121.79l-60.648-60.652L390.21,0.49c-0.649-0.653-1.699-0.653-2.348,0L200.098,188.25L54.028,334.32
		c-0.191,0.191-0.332,0.43-0.414,0.687L0.075,509.846c-0.39,1.274,0.805,2.469,2.078,2.078l174.839-53.539
		c0.258-0.082,0.496-0.222,0.687-0.414l146.07-146.07L511.51,124.138C512.163,123.489,512.163,122.438,511.51,121.79z
		 M481.23,124.138l-31.746,31.746c-0.649,0.649-1.699,0.649-2.352,0l-91.015-91.015c-0.649-0.653-0.649-1.703,0-2.352l31.746-31.746
		c0.649-0.649,1.699-0.649,2.348,0l45.511,45.508l45.508,45.511C481.878,122.438,481.878,123.489,481.23,124.138z M163.086,439.41
		c-0.195,0.457-0.586,0.805-1.058,0.957l-97.645,31.422c-0.594,0.188-1.242,0.031-1.683-0.41L40.622,449.3
		c-0.441-0.442-0.598-1.09-0.41-1.683l32.37-100.598c0.168-0.519,0.578-0.942,1.098-1.106c4.374-1.39,8.972-1.879,13.503-1.461
		c0.024,0.004,0.047,0.008,0.07,0.008c7.555,0.714,14.914,3.957,20.699,9.746c10.711,10.707,12.758,26.801,6.141,39.566
		c-0.766,1.481,0.762,3.004,2.238,2.238c12.77-6.614,28.859-4.566,39.57,6.141C165.977,412.226,168.352,427.058,163.086,439.41z
		 M138.192,321.777l-4.746-4.746c-4.57-4.57-4.57-11.977,0-16.547l138.648-138.648c4.57-4.57,11.977-4.57,16.547,0l4.746,4.746
		c4.566,4.57,4.566,11.977,0,16.546L154.734,321.777C150.169,326.343,142.762,326.343,138.192,321.777z" style="fill: rgb(142, 91, 162);"></path>
</g>
</svg>
